<svg width="62" height="38" viewBox="0 0 62 38" fill="none" xmlns="http://www.w3.org/2000/svg">
<path d="M28.3793 12.6223C28.7686 11.5984 28.7654 10.4668 28.3702 9.44519L27.016 5.944C26.568 5.016 26.184 4.32799 25.864 3.87999C25.576 3.43199 24.936 3.12799 23.944 2.96799L22.8124 2.82198C22.6086 2.79568 22.456 2.62215 22.456 2.41667C22.456 2.19096 22.639 2.008 22.8647 2.008H43.192C43.4041 2.008 43.576 2.17992 43.576 2.39199C43.576 2.60407 43.4041 2.77599 43.192 2.77599H42.904C42.68 2.77599 42.264 2.83999 41.656 2.96799C41.048 3.064 40.536 3.192 40.12 3.352C39.704 3.512 39.496 3.992 39.496 4.792C39.496 5.528 39.704 6.552 40.12 7.86399C40.568 9.17599 41.08 10.648 41.656 12.28C42.232 13.88 42.984 15.96 43.912 18.52C44.1195 19.0924 44.3142 19.6296 44.4961 20.1315C44.9899 21.4945 46.907 21.5094 47.416 20.152C48.024 18.616 48.84 16.456 49.864 13.672C50.92 10.856 51.608 8.936 51.928 7.912C52.248 6.856 52.408 5.94399 52.408 5.17599C52.408 4.43999 52.216 3.91199 51.832 3.592C51.448 3.272 50.984 3.08 50.44 3.016C49.896 2.92 49.384 2.872 48.904 2.872C48.5625 2.84923 48.2373 2.82647 47.9282 2.8037C47.7204 2.7884 47.56 2.6151 47.56 2.40674C47.56 2.18652 47.7385 2.008 47.9587 2.008H59.4903C59.7143 2.008 59.896 2.18966 59.896 2.41374C59.896 2.62011 59.7411 2.7936 59.5361 2.8169L57.784 3.016C56.76 3.176 55.96 3.464 55.384 3.87999C54.808 4.29599 54.296 5.03199 53.848 6.08799L52.408 9.784L42.8028 35.4128C42.4017 36.4829 41.3788 37.192 40.2359 37.192C39.0735 37.192 38.0374 36.4588 37.6507 35.3626L36.5168 32.1475C34.1638 25.4765 24.7554 25.4039 22.2998 32.0379L21.0541 35.4034C20.6562 36.4784 19.631 37.192 18.4848 37.192C17.3259 37.192 16.2924 36.4629 15.9038 35.3712L6.76 9.688L5.272 5.944C4.792 4.92 4.344 4.2 3.928 3.784C3.544 3.336 2.952 3.064 2.152 2.96799L0.831785 2.81711C0.626794 2.79369 0.472 2.62019 0.472 2.41387C0.472 2.18971 0.653715 2.008 0.877871 2.008H20.806C21.028 2.008 21.208 2.18796 21.208 2.40996C21.208 2.61742 21.0501 2.7908 20.8436 2.81016L19.672 2.92C18.936 3.016 18.408 3.176 18.088 3.39999C17.8 3.592 17.656 3.976 17.656 4.55199C17.656 5.25599 17.912 6.392 18.424 7.96C18.968 9.496 19.64 11.368 20.44 13.576C21.24 15.784 21.96 17.736 22.6 19.432C23.1527 20.8966 25.231 20.9025 25.7873 19.4393L28.3793 12.6223Z" fill="black"/>
<path d="M29.3793 11.6223C29.7686 10.5984 29.7654 9.46679 29.3702 8.44519L28.016 4.944C27.568 4.016 27.184 3.32799 26.864 2.87999C26.576 2.43199 25.936 2.12799 24.944 1.96799L23.8124 1.82198C23.6086 1.79568 23.456 1.62215 23.456 1.41667C23.456 1.19096 23.639 1.008 23.8647 1.008H44.192C44.4041 1.008 44.576 1.17992 44.576 1.39199C44.576 1.60407 44.4041 1.77599 44.192 1.77599H43.904C43.68 1.77599 43.264 1.83999 42.656 1.96799C42.048 2.064 41.536 2.192 41.12 2.352C40.704 2.512 40.496 2.992 40.496 3.792C40.496 4.528 40.704 5.552 41.12 6.86399C41.568 8.17599 42.08 9.64799 42.656 11.28C43.232 12.88 43.984 14.96 44.912 17.52C45.1195 18.0924 45.3142 18.6296 45.4961 19.1315C45.9899 20.4945 47.907 20.5094 48.416 19.152C49.024 17.616 49.84 15.456 50.864 12.672C51.92 9.856 52.608 7.936 52.928 6.912C53.248 5.856 53.408 4.94399 53.408 4.17599C53.408 3.43999 53.216 2.91199 52.832 2.592C52.448 2.272 51.984 2.08 51.44 2.016C50.896 1.92 50.384 1.872 49.904 1.872C49.5625 1.84923 49.2373 1.82647 48.9282 1.8037C48.7204 1.7884 48.56 1.6151 48.56 1.40674C48.56 1.18652 48.7385 1.008 48.9587 1.008H60.4903C60.7143 1.008 60.896 1.18966 60.896 1.41374C60.896 1.62011 60.7411 1.7936 60.5361 1.8169L58.784 2.016C57.76 2.176 56.96 2.464 56.384 2.87999C55.808 3.29599 55.296 4.03199 54.848 5.08799L53.408 8.784L43.8028 34.4128C43.4017 35.4829 42.3788 36.192 41.2359 36.192C40.0735 36.192 39.0374 35.4588 38.6507 34.3626L37.5168 31.1475C35.1638 24.4765 25.7554 24.4039 23.2998 31.0379L22.0541 34.4034C21.6562 35.4784 20.631 36.192 19.4848 36.192C18.3259 36.192 17.2924 35.4629 16.9038 34.3712L7.76 8.688L6.272 4.944C5.792 3.92 5.344 3.2 4.928 2.784C4.544 2.336 3.952 2.064 3.152 1.96799L1.83179 1.81711C1.62679 1.79369 1.472 1.62019 1.472 1.41387C1.472 1.18971 1.65371 1.008 1.87787 1.008H21.806C22.028 1.008 22.208 1.18796 22.208 1.40996C22.208 1.61742 22.0501 1.7908 21.8436 1.81016L20.672 1.92C19.936 2.016 19.408 2.176 19.088 2.39999C18.8 2.592 18.656 2.976 18.656 3.55199C18.656 4.25599 18.912 5.392 19.424 6.96C19.968 8.496 20.64 10.368 21.44 12.576C22.24 14.784 22.96 16.736 23.6 18.432C24.1527 19.8966 26.231 19.9025 26.7873 18.4393L29.3793 11.6223Z" fill="#069461"/>
<path d="M30.3793 10.6223C30.7686 9.59845 30.7654 8.46679 30.3702 7.44519L29.016 3.944C28.568 3.016 28.184 2.32799 27.864 1.87999C27.576 1.43199 26.936 1.12799 25.944 0.967995L24.8124 0.821978C24.6086 0.795682 24.456 0.622152 24.456 0.416667C24.456 0.190964 24.639 0.00799561 24.8647 0.00799561H45.192C45.4041 0.00799561 45.576 0.179918 45.576 0.391995C45.576 0.604072 45.4041 0.775994 45.192 0.775994H44.904C44.68 0.775994 44.264 0.839994 43.656 0.967995C43.048 1.064 42.536 1.192 42.12 1.352C41.704 1.512 41.496 1.992 41.496 2.792C41.496 3.528 41.704 4.552 42.12 5.86399C42.568 7.17599 43.08 8.64799 43.656 10.28C44.232 11.88 44.984 13.96 45.912 16.52C46.1195 17.0924 46.3142 17.6296 46.4961 18.1315C46.9899 19.4945 48.907 19.5094 49.416 18.152C50.024 16.616 50.84 14.456 51.864 11.672C52.92 8.856 53.608 6.936 53.928 5.912C54.248 4.856 54.408 3.94399 54.408 3.17599C54.408 2.43999 54.216 1.91199 53.832 1.592C53.448 1.272 52.984 1.08 52.44 1.016C51.896 0.919996 51.384 0.871996 50.904 0.871996C50.5625 0.849232 50.2373 0.826468 49.9282 0.803703C49.7204 0.788397 49.56 0.615102 49.56 0.406743C49.56 0.186521 49.7385 0.00799561 49.9587 0.00799561H61.4903C61.7143 0.00799561 61.896 0.189655 61.896 0.413743C61.896 0.620105 61.7411 0.793596 61.5361 0.816896L59.784 1.016C58.76 1.176 57.96 1.464 57.384 1.87999C56.808 2.29599 56.296 3.03199 55.848 4.08799L54.408 7.784L44.8028 33.4128C44.4017 34.4829 43.3788 35.192 42.2359 35.192C41.0735 35.192 40.0374 34.4588 39.6507 33.3626L38.5168 30.1475C36.1638 23.4765 26.7554 23.4039 24.2998 30.0379L23.0541 33.4034C22.6562 34.4784 21.631 35.192 20.4848 35.192C19.3259 35.192 18.2924 34.4629 17.9038 33.3712L8.76 7.688L7.272 3.944C6.792 2.92 6.344 2.2 5.928 1.784C5.544 1.336 4.952 1.064 4.152 0.967995L2.83179 0.817113C2.62679 0.793685 2.472 0.620192 2.472 0.413867C2.472 0.18971 2.65371 0.00799561 2.87787 0.00799561H22.806C23.028 0.00799561 23.208 0.187959 23.208 0.409956C23.208 0.617416 23.0501 0.790796 22.8436 0.810161L21.672 0.919995C20.936 1.016 20.408 1.176 20.088 1.39999C19.8 1.592 19.656 1.976 19.656 2.55199C19.656 3.25599 19.912 4.392 20.424 5.96C20.968 7.496 21.64 9.368 22.44 11.576C23.24 13.784 23.96 15.736 24.6 17.432C25.1527 18.8966 27.231 18.9025 27.7873 17.4393L30.3793 10.6223Z" fill="white"/>
</svg>
