<svg width="64" height="64" viewBox="0 0 64 64" fill="none" xmlns="http://www.w3.org/2000/svg">
<circle cx="32" cy="32" r="32" fill="#0D0D0D"/>
<circle cx="49.5" cy="20.5" r="2.5" fill="#D9D9D9"/>
<circle cx="49.5" cy="20.5" r="2.5" fill="#D9D9D9"/>
<circle cx="49.5" cy="20.5" r="2.5" fill="#D9D9D9"/>
<circle cx="49.5" cy="20.5" r="2.5" fill="#D9D9D9"/>
<circle cx="49.5" cy="20.5" r="2.5" fill="#D9D9D9"/>
<circle cx="33" cy="23" r="4" fill="#D9D9D9"/>
<circle cx="33" cy="23" r="4" fill="#D9D9D9"/>
<circle cx="33" cy="23" r="4" fill="#D9D9D9"/>
<circle cx="33" cy="23" r="4" fill="#D9D9D9"/>
<circle cx="33" cy="23" r="4" fill="#D9D9D9"/>
<ellipse cx="37.2309" cy="42.4239" rx="4.49318" ry="1.73776" transform="rotate(-26.2799 37.2309 42.4239)" fill="#D9D9D9"/>
<ellipse cx="37.2309" cy="42.4239" rx="4.49318" ry="1.73776" transform="rotate(-26.2799 37.2309 42.4239)" fill="#D9D9D9"/>
<ellipse cx="37.2309" cy="42.4239" rx="4.49318" ry="1.73776" transform="rotate(-26.2799 37.2309 42.4239)" fill="#D9D9D9"/>
<ellipse cx="37.2309" cy="42.4239" rx="4.49318" ry="1.73776" transform="rotate(-26.2799 37.2309 42.4239)" fill="#D9D9D9"/>
<ellipse cx="37.2309" cy="42.4239" rx="4.49318" ry="1.73776" transform="rotate(-26.2799 37.2309 42.4239)" fill="#D9D9D9"/>
</svg>
