<svg xmlns="http://www.w3.org/2000/svg" xmlns:xlink="http://www.w3.org/1999/xlink" width="500" zoomAndPan="magnify" viewBox="0 0 375 374.999991" height="500" preserveAspectRatio="xMidYMid meet" version="1.0"><defs><g/></defs><path stroke-linecap="butt" transform="matrix(1.136086, 0, 0, 1.136086, -18.725526, -34.959926)" fill="none" stroke-linejoin="miter" d="M 224.031071 277.992416 C 224.55026 279.945394 224.182358 281.767715 222.923925 283.459378 C 221.706752 285.154481 219.320544 286.000312 215.761861 286.000312 L 145.647212 286.000312 C 138.182573 286.000312 134.448535 284.219252 134.448535 280.660569 L 134.448535 204.9483 L 84.320962 107.357868 C 83.234446 105.232974 83.365103 103.365954 84.709494 101.760249 C 86.057324 100.154544 88.508861 99.349972 92.067544 99.349972 L 161.920879 99.349972 C 166.00219 99.349972 168.735671 99.762573 170.124761 100.587775 C 171.558549 101.368278 172.641627 102.736738 173.38087 104.689716 L 207.492651 184.373268 C 208.579167 186.718217 210.054215 187.890691 211.921234 187.890691 C 213.788253 187.890691 215.373328 187.130817 216.673021 185.611071 C 218.020851 184.091324 218.258096 182.3584 217.388196 180.401984 L 205.605002 152.668326 C 201.527129 142.73152 200.464682 133.399863 202.417659 124.676792 C 204.370637 115.953721 208.816412 108.877615 215.761861 103.451913 C 222.70731 98.026211 231.602298 95.31336 242.453702 95.31336 C 251.135513 95.31336 258.404166 97.59298 264.263099 102.148782 C 270.16673 106.663323 274.399328 112.3916 276.957454 119.337048 C 279.563716 126.282497 280.234193 133.444561 278.97576 140.819803 C 277.717327 148.198483 274.244603 154.645372 268.561025 160.157032 L 224.031071 204.9483 Z M 224.031071 277.992416 " stroke="#069461" stroke-width="70.000084" stroke-opacity="1" stroke-miterlimit="4"/><g fill="#000000" fill-opacity="1"><g transform="translate(74.628766, 289.960583)"><g><path d="M 161.171875 -9.09375 C 161.773438 -6.863281 161.367188 -4.789062 159.953125 -2.875 C 158.546875 -0.957031 155.820312 0 151.78125 0 L 72.109375 0 C 63.617188 0 59.375 -2.019531 59.375 -6.0625 L 59.375 -92.09375 L 2.421875 -202.984375 C 1.210938 -205.398438 1.363281 -207.515625 2.875 -209.328125 C 4.394531 -211.148438 7.171875 -212.0625 11.203125 -212.0625 L 90.578125 -212.0625 C 95.222656 -212.0625 98.351562 -211.609375 99.96875 -210.703125 C 101.582031 -209.796875 102.796875 -208.234375 103.609375 -206.015625 L 142.390625 -115.421875 C 143.597656 -112.796875 145.257812 -111.484375 147.375 -111.484375 C 149.5 -111.484375 151.316406 -112.34375 152.828125 -114.0625 C 154.347656 -115.78125 154.601562 -117.75 153.59375 -119.96875 L 140.265625 -151.484375 C 135.617188 -162.785156 134.40625 -173.382812 136.625 -183.28125 C 138.851562 -193.175781 143.90625 -201.203125 151.78125 -207.359375 C 159.65625 -213.523438 169.753906 -216.609375 182.078125 -216.609375 C 191.972656 -216.609375 200.253906 -214.03125 206.921875 -208.875 C 213.585938 -203.726562 218.382812 -197.21875 221.3125 -189.34375 C 224.238281 -181.46875 224.992188 -173.335938 223.578125 -164.953125 C 222.160156 -156.578125 218.222656 -149.257812 211.765625 -143 L 161.171875 -92.09375 Z M 161.171875 -9.09375 "/></g></g></g><path stroke-linecap="butt" transform="matrix(1.136086, 0, 0, 1.136086, 21.668137, -34.959926)" fill="none" stroke-linejoin="miter" d="M 188.482828 277.992416 C 189.005456 279.945394 188.634115 281.767715 187.375682 283.459378 C 186.161948 285.154481 183.775739 286.000312 180.217056 286.000312 L 110.098969 286.000312 C 102.634331 286.000312 98.903731 284.219252 98.903731 280.660569 L 98.903731 204.9483 L 48.772719 107.357868 C 47.689642 105.232974 47.81686 103.365954 49.16469 101.760249 C 50.509081 100.154544 52.960618 99.349972 56.519301 99.349972 L 126.376075 99.349972 C 130.453947 99.349972 133.190867 99.762573 134.579957 100.587775 C 136.010306 101.368278 137.096822 102.736738 137.832627 104.689716 L 171.947846 184.373268 C 173.030924 186.718217 174.50941 187.890691 176.372991 187.890691 C 178.24001 187.890691 179.825086 187.130817 181.128217 185.611071 C 182.472608 184.091324 182.709854 182.3584 181.843392 180.401984 L 170.060197 152.668326 C 165.978886 142.73152 164.916439 133.399863 166.869417 124.676792 C 168.822394 115.953721 173.271608 108.877615 180.217056 103.451913 C 187.159067 98.026211 196.057493 95.31336 206.908898 95.31336 C 215.58727 95.31336 222.855923 97.59298 228.718294 102.148782 C 234.618488 106.663323 238.851085 112.3916 241.412649 119.337048 C 244.015473 126.282497 244.689388 133.444561 243.430955 140.819803 C 242.172523 148.198483 238.699798 154.645372 233.012782 160.157032 L 188.482828 204.9483 Z M 188.482828 277.992416 " stroke="#000000" stroke-width="36.666714" stroke-opacity="1" stroke-miterlimit="4"/><g fill="#ffffff" fill-opacity="1"><g transform="translate(74.638132, 289.960583)"><g><path d="M 161.171875 -9.09375 C 161.773438 -6.863281 161.367188 -4.789062 159.953125 -2.875 C 158.546875 -0.957031 155.820312 0 151.78125 0 L 72.109375 0 C 63.617188 0 59.375 -2.019531 59.375 -6.0625 L 59.375 -92.09375 L 2.421875 -202.984375 C 1.210938 -205.398438 1.363281 -207.515625 2.875 -209.328125 C 4.394531 -211.148438 7.171875 -212.0625 11.203125 -212.0625 L 90.578125 -212.0625 C 95.222656 -212.0625 98.351562 -211.609375 99.96875 -210.703125 C 101.582031 -209.796875 102.796875 -208.234375 103.609375 -206.015625 L 142.390625 -115.421875 C 143.597656 -112.796875 145.257812 -111.484375 147.375 -111.484375 C 149.5 -111.484375 151.316406 -112.34375 152.828125 -114.0625 C 154.347656 -115.78125 154.601562 -117.75 153.59375 -119.96875 L 140.265625 -151.484375 C 135.617188 -162.785156 134.40625 -173.382812 136.625 -183.28125 C 138.851562 -193.175781 143.90625 -201.203125 151.78125 -207.359375 C 159.65625 -213.523438 169.753906 -216.609375 182.078125 -216.609375 C 191.972656 -216.609375 200.253906 -214.03125 206.921875 -208.875 C 213.585938 -203.726562 218.382812 -197.21875 221.3125 -189.34375 C 224.238281 -181.46875 224.992188 -173.335938 223.578125 -164.953125 C 222.160156 -156.578125 218.222656 -149.257812 211.765625 -143 L 161.171875 -92.09375 Z M 161.171875 -9.09375 "/></g></g></g></svg>